<svg id="Calque_1" data-name="Calque 1" xmlns="http://www.w3.org/2000/svg" viewBox="0 0 841.89 595.28"><defs><style>.cls-1{fill:#013c4c;}.cls-2{fill:#19a7cd;}.cls-3{fill:#09a6ca;}</style></defs><path class="cls-1" d="M307.8,264.65V333.4H288.15V264.65Z"/><path class="cls-1" d="M364,299a35.09,35.09,0,0,1,4.63-17.8V264.65H349v32.41l-19.64-32.41H313.62V333.4h19.64V301l19.65,32.41h15.71V316.83A35.1,35.1,0,0,1,364,299Z"/><path class="cls-1" d="M386.93,331.78a35.63,35.63,0,0,1-13.21-13,36.6,36.6,0,0,1,0-36.45,35.71,35.71,0,0,1,13.21-13,37.83,37.83,0,0,1,36.74,0,35.71,35.71,0,0,1,13.21,13,36.6,36.6,0,0,1,0,36.45,35.63,35.63,0,0,1-13.21,13,37.83,37.83,0,0,1-36.74,0Zm27-16.65a15.56,15.56,0,0,0,6-6,18,18,0,0,0,0-17.09,15.56,15.56,0,0,0-6-6,18.36,18.36,0,0,0-17.28,0,15.47,15.47,0,0,0-6,6,17.91,17.91,0,0,0,0,17.09,15.47,15.47,0,0,0,6,6,18.36,18.36,0,0,0,17.28,0Z"/><path class="cls-1" d="M486.67,311h.12l4.45-14.3a18.48,18.48,0,0,1-3.88-12,20.9,20.9,0,0,1,3.24-11.78,19.92,19.92,0,0,1,8.84-7.37c.56-.25,1.14-.47,1.72-.68l.06-.2H480.11l-11.3,45.67-11.3-45.67H436.4l21.41,68.75h22l6.87-22C486.68,311.24,486.67,311.12,486.67,311Z"/><path class="cls-2" d="M498.23,330.65q-7.37-5.89-7.36-18.07h19.64a4.94,4.94,0,0,0,1.92,4.37,9.72,9.72,0,0,0,5.55,1.32,7.23,7.23,0,0,0,4.27-1.08,3.33,3.33,0,0,0,1.52-2.84c0-1.31-.8-2.33-2.4-3.05a70.64,70.64,0,0,0-8.3-2.75,42.94,42.94,0,0,1-15.33-7.91q-6.18-5.14-6.18-14.39a20.9,20.9,0,0,1,3.24-11.78,19.86,19.86,0,0,1,8.84-7.37,31.33,31.33,0,0,1,12.67-2.45q11.1,0,18.22,5.74t7.12,17.24H522a4.48,4.48,0,0,0-1.37-3.39,6.07,6.07,0,0,0-4.32-1.33,6.51,6.51,0,0,0-3.78.94,2.9,2.9,0,0,0-1.33,2.5,3.58,3.58,0,0,0,2.31,3.24,45.62,45.62,0,0,0,7.41,2.66l2.46.68a37.05,37.05,0,0,1,14.24,7.76q5.79,5.21,5.8,14.25,0,10.31-7.12,16t-18.52,5.64Q505.6,336.54,498.23,330.65Z"/><path class="cls-2" d="M589.92,315.33V333.4H546.7V264.65h42.73v18.07H566.35v7.66H587v16.7H566.35v8.25Z"/><path class="cls-2" d="M635.54,314.35v19H594.29V264.65h19.64v49.7Z"/><path class="cls-2" d="M680.7,314.35v19H639.45V264.65h19.64v49.7Z"/><path class="cls-3" d="M238.33,237.09h-5.55V225.67a20.54,20.54,0,0,0-41.08,0v11.42h-5.55V225.67a26.09,26.09,0,1,1,52.18,0Z"/><path class="cls-1" d="M257.63,255.68l-.75-9.55a9.8,9.8,0,0,0-9.77-9H177.55a9.79,9.79,0,0,0-9.77,9c-1.8,21.31-6.18,73.24-6.18,73.24s8.34,1.74,29-1.55c13.84-2.2,27.05-7.95,39-15.26l.43-.27c11.1-6.87,22-15.75,27.12-28.1a32,32,0,0,0,1.27-3.6l.05-.21c.1-.35.19-.71.27-1.06Zm-68.21-5.81a3.49,3.49,0,1,1,3.49-3.48A3.48,3.48,0,0,1,189.42,249.87Zm45.92,0a3.49,3.49,0,1,1,3.48-3.48A3.48,3.48,0,0,1,235.34,249.87Z"/><path class="cls-1" d="M161.64,321.79l-.38,3.07a9.8,9.8,0,0,0,9.73,11H254.1a9.8,9.8,0,0,0,9.77-10.53l-2.7-35.81c.07.83-4.28,7.46-8.06,11.15-19,18.58-45.8,22.84-72.1,22.79A98.23,98.23,0,0,1,161.64,321.79Z"/><path class="cls-2" d="M204.18,289.89a6.19,6.19,0,0,1,1.82-9.34v-8.21c-.16-.13-.33-.25-.48-.38q-4-3.36-4-9.38a13.64,13.64,0,0,1,2.11-7.68,12.74,12.74,0,0,1,1.64-2,6.4,6.4,0,0,0-12,3v32a6.4,6.4,0,0,0,12,3.05A11.88,11.88,0,0,1,204.18,289.89Z"/><path class="cls-2" d="M206.89,291.5a11,11,0,0,1-1.66-1.61c-3.37-4-.33-10.16,4.91-10.16h.91a5.92,5.92,0,0,1,4.54,2.35,2.35,2.35,0,0,0,.54.5,6.39,6.39,0,0,0,3.62.86,4.74,4.74,0,0,0,2.78-.7,2.12,2.12,0,0,0-.58-3.84,43,43,0,0,0-5.4-1.79,28,28,0,0,1-10-5.15q-4-3.36-4-9.38a13.64,13.64,0,0,1,2.12-7.68,13,13,0,0,1,5.75-4.8,20.52,20.52,0,0,1,8.26-1.6q7.23,0,11.87,3.75l.09.07c4.54,3.74,1.75,11.16-4.13,11.16h-.2a6.39,6.39,0,0,1-4.69-2.08l-.13-.13a3.94,3.94,0,0,0-2.81-.86,4.26,4.26,0,0,0-2.46.6,1.91,1.91,0,0,0-.87,1.64,2.34,2.34,0,0,0,1.51,2.11,29.49,29.49,0,0,0,4.83,1.73l1.6.44a24.09,24.09,0,0,1,9.27,5.06,11.83,11.83,0,0,1,3.78,9.28q0,6.72-4.64,10.4t-12.06,3.67Q211.69,295.34,206.89,291.5Z"/><path class="cls-2" d="M258.69,269.25s-20.51,50.16-97.09,50.05a26.07,26.07,0,0,1-.08,3.44s75.07,12.78,99.79-31.46A135.9,135.9,0,0,0,258.69,269.25Z"/></svg>